<?xml version="1.0" encoding="UTF-8"?>
<svg width="345px" height="50px" viewBox="0 0 345 50" version="1.1" xmlns="http://www.w3.org/2000/svg" xmlns:xlink="http://www.w3.org/1999/xlink">
    <!-- Generator: Sketch 48.2 (47327) - http://www.bohemiancoding.com/sketch -->
    <title>logo-dark</title>
    <desc>Created with Sketch.</desc>
    <defs>
        <path d="M0.24977396,42.101343 L5.61746446,34.1670093 C7.38433808,36.1010856 9.51461895,37.6739554 12.008371,38.8856659 C14.502123,40.0973764 17.2250804,40.7032225 20.1773249,40.7032225 C22.7493562,40.7032225 24.7174897,40.1964089 26.0817845,39.1827665 C27.4460793,38.1691241 28.1282165,36.9050028 28.1282165,35.3903647 C28.1282165,34.4116755 27.7480089,33.5669862 26.9875823,32.8562714 C26.2271556,32.1455566 25.2319063,31.5979649 24.0018044,31.2134798 C22.7717025,30.8289947 21.3682892,30.4212137 19.7915222,29.9901244 C18.2147552,29.5590351 16.5988729,29.151254 14.9438267,28.766769 C13.2887805,28.3822839 11.6728982,27.8230413 10.0961312,27.0890244 C8.51936425,26.3550075 7.11595087,25.5044927 5.88584898,24.5374545 C4.65574709,23.5704163 3.66049777,22.2596915 2.90007114,20.6052407 C2.13964452,18.9507898 1.75943691,17.0516952 1.75943691,14.9078997 C1.75943691,10.8067258 3.34177152,7.36388857 6.5064882,4.57928469 C9.67120488,1.79468082 13.881445,0.402399763 19.1373349,0.402399763 C26.4732153,0.402399763 32.4335287,2.61606838 37.0184539,7.04347203 L31.5836673,14.6282756 C29.7720626,12.9039184 27.703286,11.6048445 25.3772751,10.7310148 C23.0512643,9.85718513 20.680558,9.42027685 18.2650852,9.42027685 C16.2298257,9.42027685 14.6418998,9.84553424 13.5012599,10.6960618 C12.3606199,11.5465893 11.7903085,12.6942017 11.7903085,14.1389335 C11.7903085,15.0244142 12.1649249,15.7933728 12.9141687,16.4458322 C13.6634126,17.0982917 14.6586619,17.6051053 15.8999466,17.9662883 C17.1412312,18.3274712 18.5502359,18.7236014 20.1270028,19.1546907 C21.7037698,19.58578 23.3084696,19.9993865 24.9411503,20.3955226 C26.5738309,20.7916587 28.1785307,21.3683776 29.7552977,22.1256967 C31.3320646,22.8830157 32.7410693,23.7568323 33.9823539,24.7471726 C35.2236386,25.7375129 36.2188879,27.0598886 36.9681318,28.7143394 C37.7173757,30.3687903 38.091992,32.2562341 38.091992,34.3767274 C38.091992,38.9439438 36.52084,42.6431005 33.3784888,45.4743087 C30.2361376,48.3055168 25.7016027,49.7210996 19.7747482,49.7210996 C11.6337102,49.7210996 5.12545054,47.1812062 0.24977396,42.101343 Z M44.6003167,48.8472743 L44.6003167,1.10146 L66.0375306,1.10146 C68.4530034,1.10146 70.6503798,1.50924106 72.6297255,2.32481542 C74.6090713,3.14038978 76.2305449,4.24722409 77.4941951,5.64535156 C78.7578452,7.04347902 79.7307293,8.66877783 80.4128768,10.5212967 C81.0950242,12.3738156 81.4360928,14.3602919 81.4360928,16.4807853 C81.4360928,18.5779765 81.0950242,20.5469764 80.4128768,22.3878443 C79.7307293,24.2287121 78.7522539,25.8540109 77.477421,27.2637894 C76.2025882,28.673568 74.5811145,29.7862277 72.6129515,30.6018021 C70.6447885,31.4173764 68.4530034,31.8251575 66.0375306,31.8251575 L54.3628038,31.8251575 L54.3628038,48.8472743 L44.6003167,48.8472743 Z M54.3628038,22.8771864 L64.66206,22.8771864 C66.630223,22.8771864 68.2572879,22.2946421 69.5433035,21.1295358 C70.8293191,19.9644296 71.4723173,18.4148616 71.4723173,16.4807853 C71.4723173,14.5234068 70.8293191,12.9621879 69.5433035,11.7970817 C68.2572879,10.6319754 66.630223,10.0494311 64.66206,10.0494311 L54.3628038,10.0494311 L54.3628038,22.8771864 Z M87.5418407,48.8472743 L87.5418407,1.10146 L119.98282,1.10146 L119.98282,10.0494311 L97.3043278,10.0494311 L97.3043278,20.0809455 L119.479599,20.0809455 L119.479599,29.0289165 L97.3043278,29.0289165 L97.3043278,39.8993033 L119.98282,39.8993033 L119.98282,48.8472743 L87.5418407,48.8472743 Z M125.384059,25.0093202 C125.384059,20.1857804 126.457586,15.8866029 128.604673,12.1116588 C130.75176,8.3367146 133.681595,5.42399273 137.394266,3.37340578 C141.106937,1.32281882 145.255673,0.297540727 149.840599,0.297540727 C152.256071,0.297540727 154.498178,0.617940132 156.566986,1.25874856 C158.635793,1.89955698 160.436188,2.78502443 161.968224,3.91517746 C163.50026,5.0453305 164.830987,6.26867369 165.960444,7.58524372 C167.089901,8.90181375 168.079559,10.3640001 168.929448,11.9718467 L160.542431,16.2710672 C159.55835,14.2670845 158.093432,12.6126585 156.147635,11.3077395 C154.201837,10.0028205 152.099513,9.35037082 149.840599,9.35037082 C145.658252,9.35037082 142.208427,10.8300335 139.49102,13.7894033 C136.773613,16.7487731 135.41493,20.488708 135.41493,25.0093202 C135.41493,29.5299323 136.773613,33.2756926 139.49102,36.2467135 C142.208427,39.2177344 145.658252,40.7032225 149.840599,40.7032225 C152.099513,40.7032225 154.201837,40.0449474 156.147635,38.7283774 C158.093432,37.4118073 159.55835,35.7515559 160.542431,33.7475732 L168.929448,37.9768876 C168.057194,39.5847342 167.067536,41.0469206 165.960444,42.3634906 C164.853352,43.6800606 163.528217,44.9092293 161.984998,46.0510334 C160.44178,47.1928375 158.635793,48.0899558 156.566986,48.7424153 C154.498178,49.3948748 152.256071,49.7210996 149.840599,49.7210996 C146.418679,49.7210996 143.203688,49.1152535 140.19553,47.903543 C137.187371,46.6918325 134.593014,45.0199302 132.412378,42.8877858 C130.231743,40.7556414 128.515218,38.1458426 127.26275,35.0583111 C126.010283,31.9707796 125.384059,28.6211495 125.384059,25.0093202 Z M171.915226,10.0494311 L171.915226,1.10146 L208.482617,1.10146 L208.482617,10.0494311 L195.130487,10.0494311 L195.130487,48.8472743 L185.334452,48.8472743 L185.334452,10.0494311 L171.915226,10.0494311 Z M214.689009,48.8472743 L214.689009,1.10146 L247.129989,1.10146 L247.129989,10.0494311 L224.451497,10.0494311 L224.451497,20.0809455 L246.626768,20.0809455 L246.626768,29.0289165 L224.451497,29.0289165 L224.451497,39.8993033 L247.129989,39.8993033 L247.129989,48.8472743 L214.689009,48.8472743 Z M254.711852,48.8472743 L254.711852,1.10146 L276.149066,1.10146 C280.845818,1.10146 284.597573,2.53451916 287.404442,5.40068047 C290.211311,8.26684178 291.614724,11.9601731 291.614724,16.4807853 C291.614724,18.484768 291.323977,20.3372591 290.742474,22.0383142 C290.160971,23.7393692 289.378191,25.1549521 288.39411,26.2851051 C287.410028,27.4152581 286.342092,28.3473291 285.190269,29.0813461 C284.038447,29.815363 282.813954,30.3454784 281.516756,30.6717081 L291.883108,48.8472743 L280.610958,48.8472743 L271.620077,31.8950635 L264.474339,31.8950635 L264.474339,48.8472743 L254.711852,48.8472743 Z M264.474339,22.9470925 L274.773595,22.9470925 C276.741758,22.9470925 278.368823,22.3587227 279.654838,21.1819654 C280.940854,20.0052081 281.583852,18.4148619 281.583852,16.4108792 C281.583852,14.4768029 280.940854,12.9330603 279.654838,11.7796052 C278.368823,10.62615 276.741758,10.0494311 274.773595,10.0494311 L264.474339,10.0494311 L264.474339,22.9470925 Z" id="path-1"></path>
        <path d="M0.679992676,25.0075398 C0.679992676,21.4658721 1.27822191,18.1572584 2.47469831,15.0815996 C3.67117472,12.0059408 5.3204983,9.39050496 7.42271852,7.23521374 C9.52493875,5.07992251 12.0632198,3.38484052 15.0376378,2.1499169 C18.0120557,0.914993275 21.2100662,0.297540727 24.6317651,0.297540727 C29.1940303,0.297540727 33.29218,1.34604505 36.9263373,3.44308516 C40.5604947,5.54012528 43.4062767,8.47593739 45.4637688,12.2506096 C47.521261,16.0252818 48.5499916,20.2775493 48.5499916,25.0075398 C48.5499916,29.7375303 47.521261,33.9897978 45.4637688,37.76447 C43.4062767,41.5391422 40.5604947,44.4749543 36.9263373,46.5719945 C33.29218,48.6690346 29.1940303,49.7175389 24.6317651,49.7175389 C21.2100662,49.7175389 18.0120557,49.1000863 15.0376378,47.8651627 C12.0632198,46.6302391 9.52493875,44.9351571 7.42271852,42.7798659 C5.3204983,40.6245747 3.67117472,38.0091389 2.47469831,34.93348 C1.27822191,31.8578212 0.679992676,28.5492076 0.679992676,25.0075398 Z" id="path-3"></path>
        <path d="M10.6642092,4.74688901 L2.95861128,12.1348295 C2.48114334,12.5927597 1.70495187,12.5927597 1.22748393,12.1348295 C0.987525687,11.9046903 0.869995117,11.6041002 0.869995117,11.3058585 C0.869995117,11.0076167 0.98997424,10.7046783 1.22993249,10.4768874 L11.0241466,1.08344742 C11.5016145,0.625517222 12.277806,0.625517222 12.7552739,1.08344742 L12.7528254,1.08344742 L22.5470395,10.4768874 C23.0245074,10.9348176 23.0245074,11.6792477 22.5470395,12.1371779 C22.0695716,12.5951081 21.2933801,12.5951081 20.8159122,12.1371779 L13.1127628,4.74688901 L13.1127628,26.9631101 L20.8159122,19.5728212 C21.2933801,19.114891 22.0695716,19.114891 22.5470395,19.5728212 C23.0245074,20.0307514 23.0245074,20.7751815 22.5470395,21.2331117 L12.7528254,30.6265517 L12.7552739,30.6265517 C12.277806,31.0844819 11.5016145,31.0844819 11.0241466,30.6265517 L1.22993249,21.2331117 C0.98997424,21.0053208 0.869995117,20.7023823 0.869995117,20.4041406 C0.869995117,20.1058989 0.987525687,19.8053088 1.22748393,19.5751695 C1.70495187,19.1172393 2.48114334,19.1172393 2.95861128,19.5751695 L10.6642092,26.9631101 L10.6642092,4.74688901 Z" id="path-5"></path>
    </defs>
    <g id="Artboard-3" stroke="none" stroke-width="1" fill="none" fill-rule="evenodd" transform="translate(-132.000000, -153.000000)">
        <g id="logo-dark" transform="translate(132.000000, 153.000000)">
            <g id="Logo-Mask">
                <mask id="mask-2" fill="white">
                    <use xlink:href="#path-1"></use>
                </mask>
                <use id="Logo-Path" fill="#FFFFFF" xlink:href="#path-1"></use>
                <rect id="Rectangle" fill="#000000" mask="url(#mask-2)" x="-9" y="-12" width="342" height="74"></rect>
            </g>
            <g id="Bubble-Mask" transform="translate(296.000000, 0.000000)">
                <mask id="mask-4" fill="white">
                    <use xlink:href="#path-3"></use>
                </mask>
                <g id="Mask"></g>
                <rect id="Rectangle-2" fill="#18FF6D" mask="url(#mask-4)" x="-10" y="-8" width="77" height="65"></rect>
            </g>
            <g id="Arrow-Mask" transform="translate(309.000000, 9.000000)">
                <mask id="mask-6" fill="white">
                    <use xlink:href="#path-5"></use>
                </mask>
                <g id="Mask"></g>
                <rect id="Rectangle-3" fill="#000000" mask="url(#mask-6)" x="-6" y="-9" width="47" height="53"></rect>
            </g>
        </g>
    </g>
</svg>