<?xml version="1.0" encoding="UTF-8"?>
<svg width="489px" height="61px" viewBox="0 0 489 61" version="1.1" xmlns="http://www.w3.org/2000/svg" xmlns:xlink="http://www.w3.org/1999/xlink">
    <!-- Generator: Sketch 50.2 (55047) - http://www.bohemiancoding.com/sketch -->
    <title>new copy 3</title>
    <desc>Created with Sketch.</desc>
    <defs></defs>
    <g id="Assets" stroke="none" stroke-width="1" fill="none" fill-rule="evenodd">
        <g id="Artboard-Copy" transform="translate(-61.000000, -48.000000)">
            <g id="new-copy-3" transform="translate(60.000000, 49.000000)">
                <path d="M1.74169922,49.8012695 L8.53857422,40.1582031 C10.7758901,42.5088008 13.4733729,44.4204028 16.6311035,45.8930664 C19.7888341,47.36573 23.2367977,48.1020508 26.9750977,48.1020508 C30.2319499,48.1020508 32.7241125,47.4860901 34.4516602,46.2541504 C36.1792079,45.0222106 37.0429688,43.485849 37.0429688,41.6450195 C37.0429688,40.4555605 36.5615283,39.4289594 35.5986328,38.5651855 C34.6357374,37.7014117 33.3754961,37.035891 31.8178711,36.5686035 C30.2602461,36.101316 28.4831643,35.6057155 26.4865723,35.0817871 C24.4899803,34.5578587 22.4438581,34.0622582 20.3481445,33.5949707 C18.2524309,33.1276832 16.2063088,32.4480025 14.2097168,31.5559082 C12.2131248,30.6638139 10.4360429,29.6301328 8.87841797,28.454834 C7.32079299,27.2795351 6.06055169,25.6865335 5.09765625,23.6757812 C4.13476081,21.665029 3.65332031,19.3569466 3.65332031,16.7514648 C3.65332031,11.7670649 5.65696239,7.58278059 9.66430664,4.19848633 C13.6716509,0.814192063 19.0028964,-0.877929688 25.6582031,-0.877929688 C34.9473121,-0.877929688 42.4945999,1.8124731 48.300293,7.19335938 L41.418457,16.4116211 C39.1245002,14.3159075 36.5048975,12.7370659 33.5595703,11.6750488 C30.6142431,10.6130318 27.61232,10.0820312 24.5537109,10.0820312 C21.9765496,10.0820312 19.9658275,10.5988718 18.5214844,11.6325684 C17.0771412,12.6662649 16.3549805,14.0610264 16.3549805,15.8168945 C16.3549805,16.8930718 16.829341,17.8276328 17.7780762,18.6206055 C18.7268114,19.4135782 19.9870527,20.0295388 21.5588379,20.4685059 C23.1306231,20.9074729 24.9147849,21.3889134 26.911377,21.9128418 C28.907969,22.4367702 30.9399311,22.9394507 33.0073242,23.4208984 C35.0747174,23.9023462 37.1066795,24.6032669 39.1032715,25.5236816 C41.0998635,26.4440964 42.8840253,27.5060975 44.4558105,28.7097168 C46.0275957,29.9133361 47.2878371,31.5204978 48.2365723,33.53125 C49.1853075,35.5420022 49.659668,37.8359246 49.659668,40.4130859 C49.659668,45.9638949 47.6701859,50.4596996 43.6911621,53.9006348 C39.7121383,57.3415699 33.9702524,59.0620117 26.465332,59.0620117 C16.1566867,59.0620117 7.91555821,55.9751285 1.74169922,49.8012695 Z M57.9008789,58 L57.9008789,-0.0283203125 L85.0458984,-0.0283203125 C88.1045075,-0.0283203125 90.8869504,0.4672802 93.3933105,1.45849609 C95.8996707,2.44971199 97.9528729,3.79491338 99.5529785,5.49414062 C101.153084,7.19336787 102.385005,9.16868991 103.248779,11.420166 C104.112553,13.6716421 104.544434,16.0859246 104.544434,18.6630859 C104.544434,21.2119268 104.112553,23.6049693 103.248779,25.8422852 C102.385005,28.079601 101.146004,30.0549231 99.5317383,31.7683105 C97.9174724,33.481698 95.8642703,34.8339794 93.3720703,35.8251953 C90.8798704,36.8164112 88.1045075,37.3120117 85.0458984,37.3120117 L70.2626953,37.3120117 L70.2626953,58 L57.9008789,58 Z M70.2626953,26.4370117 L83.3041992,26.4370117 C85.7963992,26.4370117 87.8566813,25.729011 89.4851074,24.3129883 C91.1135335,22.8969656 91.9277344,21.0136836 91.9277344,18.6630859 C91.9277344,16.2841678 91.1135335,14.3867258 89.4851074,12.9707031 C87.8566813,11.5546804 85.7963992,10.8466797 83.3041992,10.8466797 L70.2626953,10.8466797 L70.2626953,26.4370117 Z M112.275879,58 L112.275879,-0.0283203125 L153.354492,-0.0283203125 L153.354492,10.8466797 L124.637695,10.8466797 L124.637695,23.0385742 L152.717285,23.0385742 L152.717285,33.9135742 L124.637695,33.9135742 L124.637695,47.125 L153.354492,47.125 L153.354492,58 L112.275879,58 Z M160.193848,29.0283203 C160.193848,23.1659863 161.553209,17.9409409 164.271973,13.3530273 C166.990736,8.76511378 170.70066,5.22511012 175.401855,2.73291016 C180.103051,0.240710195 185.356416,-1.00537109 191.162109,-1.00537109 C194.220718,-1.00537109 197.059801,-0.615970691 199.679443,0.162841797 C202.299085,0.941654285 204.578848,2.0178154 206.518799,3.39135742 C208.45875,4.76489945 210.143792,6.25170098 211.573975,7.85180664 C213.004158,9.4519123 214.257319,11.2289941 215.333496,13.1831055 L204.713379,18.4082031 C203.467279,15.9726441 201.612317,13.961922 199.148438,12.3759766 C196.684558,10.7900311 194.022475,9.99707031 191.162109,9.99707031 C185.866184,9.99707031 181.49782,11.7953922 178.056885,15.3920898 C174.61595,18.9887875 172.895508,23.5341522 172.895508,29.0283203 C172.895508,34.5224884 174.61595,39.0749331 178.056885,42.685791 C181.49782,46.2966489 185.866184,48.1020508 191.162109,48.1020508 C194.022475,48.1020508 196.684558,47.30201 199.148438,45.7019043 C201.612317,44.1017986 203.467279,42.0839966 204.713379,39.6484375 L215.333496,44.7885742 C214.228998,46.7426856 212.975837,48.5197674 211.573975,50.119873 C210.172112,51.7199787 208.49415,53.2138602 206.540039,54.6015625 C204.585928,55.9892648 202.299085,57.0795859 199.679443,57.8725586 C197.059801,58.6655313 194.220718,59.0620117 191.162109,59.0620117 C186.82908,59.0620117 182.758076,58.325691 178.948975,56.8530273 C175.139874,55.3803637 171.85475,53.3484016 169.093506,50.7570801 C166.332262,48.1657585 164.158699,44.9939152 162.572754,41.2414551 C160.986808,37.4889949 160.193848,33.4179907 160.193848,29.0283203 Z M219.114258,10.8466797 L219.114258,-0.0283203125 L265.417969,-0.0283203125 L265.417969,10.8466797 L248.510742,10.8466797 L248.510742,58 L236.106445,58 L236.106445,10.8466797 L219.114258,10.8466797 Z M273.276855,58 L273.276855,-0.0283203125 L314.355469,-0.0283203125 L314.355469,10.8466797 L285.638672,10.8466797 L285.638672,23.0385742 L313.718262,23.0385742 L313.718262,33.9135742 L285.638672,33.9135742 L285.638672,47.125 L314.355469,47.125 L314.355469,58 L273.276855,58 Z M323.956055,58 L323.956055,-0.0283203125 L351.101074,-0.0283203125 C357.04837,-0.0283203125 361.799054,1.71336149 365.353271,5.19677734 C368.907488,8.6801932 370.68457,13.1689178 370.68457,18.6630859 C370.68457,21.098645 370.31641,23.3500873 369.580078,25.4174805 C368.843746,27.4848736 367.852545,29.2053154 366.606445,30.5788574 C365.360345,31.9523994 364.008064,33.0852006 362.549561,33.9772949 C361.091057,34.8693892 359.540536,35.5136699 357.897949,35.9101562 L371.024414,58 L356.750977,58 L345.366211,37.3969727 L336.317871,37.3969727 L336.317871,58 L323.956055,58 Z M336.317871,26.5219727 L349.359375,26.5219727 C351.851575,26.5219727 353.911857,25.8068919 355.540283,24.376709 C357.168709,22.9465261 357.98291,21.0136841 357.98291,18.578125 C357.98291,16.2275273 357.168709,14.3513254 355.540283,12.9494629 C353.911857,11.5476004 351.851575,10.8466797 349.359375,10.8466797 L336.317871,10.8466797 L336.317871,26.5219727 Z M379.350586,41.0927734 C377.849602,37.3544735 377.099121,33.3330293 377.099121,29.0283203 C377.099121,24.7236113 377.856682,20.7021671 379.371826,16.9638672 C380.88697,13.2255672 382.975573,10.046644 385.637695,7.42700195 C388.299818,4.80735995 391.514141,2.74707782 395.280762,1.24609375 C399.047382,-0.254890317 403.097146,-1.00537109 407.430176,-1.00537109 C413.207548,-1.00537109 418.397194,0.269030225 422.999268,2.81787109 C427.601341,5.36671196 431.205065,8.93503565 433.810547,13.5229492 C436.416029,18.1108628 437.71875,23.2792681 437.71875,29.0283203 C437.71875,34.7773725 436.416029,39.9457778 433.810547,44.5336914 C431.205065,49.121605 427.601341,52.6899287 422.999268,55.2387695 C418.397194,57.7876104 413.207548,59.0620117 407.430176,59.0620117 C403.097146,59.0620117 399.047382,58.3115309 395.280762,56.8105469 C391.514141,55.3095628 388.299818,53.2492807 385.637695,50.6296387 C382.975573,48.0099967 380.87989,44.8310734 379.350586,41.0927734 Z M389.800781,29.0283203 C389.800781,34.5224884 391.415023,39.0749331 394.643555,42.685791 C397.872086,46.2966489 402.134251,48.1020508 407.430176,48.1020508 C412.69778,48.1020508 416.945785,46.2966489 420.174316,42.685791 C423.402848,39.0749331 425.01709,34.5224884 425.01709,29.0283203 C425.01709,23.5058318 423.402848,18.9533871 420.174316,15.3708496 C416.945785,11.7883122 412.69778,9.99707031 407.430176,9.99707031 C402.10593,9.99707031 397.836686,11.7883122 394.622314,15.3708496 C391.407943,18.9533871 389.800781,23.5058318 389.800781,29.0283203 Z" id="SPECTERO-Copy" fill="#0F1327"></path>
                <path d="M465.779259,8.55103469 L451.791427,22.414896 C450.924688,23.2742263 449.515682,23.2742263 448.648943,22.414896 C448.213351,21.9830275 448,21.4189543 448,20.8592879 C448,20.2996216 448.217796,19.7311416 448.653388,19.3036799 L466.432647,1.67639271 C467.299386,0.817062457 468.708392,0.817062457 469.575131,1.67639271 L487.349946,19.3036799 C488.216685,20.1630101 488.216685,21.5599726 487.349946,22.4193029 C486.483207,23.2786331 485.074201,23.2786331 484.207462,22.4193029 L470.224074,8.55103469 L470.224074,49.5127553 L484.207462,35.6444872 C485.074201,34.7851569 486.483207,34.7851569 487.349946,35.6444872 C488.216685,36.5038174 488.216685,37.9007799 487.349946,38.7601102 L469.575131,56.3873973 C468.708392,57.2467276 467.299386,57.2467276 466.432647,56.3873973 L448.653388,38.7601102 C448.217796,38.3326485 448,37.7641685 448,37.2045021 C448,36.6448357 448.213351,36.0807625 448.648943,35.648894 C449.515682,34.7895638 450.924688,34.7895638 451.791427,35.648894 L465.779259,49.5127553 L465.779259,8.55103469 Z" id="Combined-Shape" stroke="#18FF6D" stroke-width="3" fill="#18FF6D"></path>
            </g>
        </g>
    </g>
</svg>